<!--?xml version="1.0" standalone="no"?-->
              <svg id="sw-js-blob-svg" viewBox="0 0 100 100" xmlns="http://www.w3.org/2000/svg" version="1.1">
                    <defs> 
                        <linearGradient id="sw-gradient" x1="0" x2="1" y1="1" y2="0">
                            <stop id="stop1" stop-color="rgba(248, 117, 55, 1)" offset="0%"></stop>
                            <stop id="stop2" stop-color="rgba(251, 168, 31, 1)" offset="100%"></stop>
                        </linearGradient>
                    </defs>
                <path fill="url(#sw-gradient)" d="M21.8,-28.7C29.7,-24.3,38.4,-19.8,40.3,-13.2C42.3,-6.7,37.4,2,32.5,8.5C27.5,15,22.4,19.5,17,24.7C11.6,29.9,5.8,36,-0.9,37.2C-7.6,38.4,-15.2,34.9,-20.7,29.7C-26.3,24.5,-29.8,17.6,-32,10.5C-34.3,3.3,-35.2,-4.2,-33.2,-10.9C-31.2,-17.6,-26.2,-23.4,-20.2,-28.4C-14.2,-33.3,-7.1,-37.3,-0.1,-37.2C7,-37.1,14,-33,21.8,-28.7Z" width="100%" height="100%" transform="translate(50 50)" stroke-width="0" style="transition: all 0.3s ease 0s;"></path>
              </svg>